# xmcd
#
# Track frame offsets:
# 150
# 15860
# 39507
# 57232
# 77141
# 94759
# 116557
# 137819
# 153972
# 172366
# 196906
#
# Disc length: 2853 seconds
#
#
# Revision: 0
# Processed by: cddbd v1.5.2PL0 Copyright (c) Steve Scherf et al.
# Submitted via: FreeRIP 2.945 
#
DISCID=890b230b
DTITLE=Kevin Double - Blues in the morning
DYEAR=2006
DGENRE=Blues
TTITLE0=Jumping the blues
TTITLE1=One scotch, one bourbon, one beer
TTITLE2=I can't hold out much longer
TTITLE3=Reefer head woman
TTITLE4=Great pleasure
TTITLE5=Lightnin
TTITLE6=Since my baby been gone
TTITLE7=Mean mistreater
TTITLE8=Buzz me baby
TTITLE9=Dat ain't right
TTITLE10=Confessing the blues
EXTD=
EXTT0=
EXTT1=
EXTT2=
EXTT3=
EXTT4=
EXTT5=
EXTT6=
EXTT7=
EXTT8=
EXTT9=
EXTT10=
PLAYORDER=
